<?xml version="1.0" encoding="UTF-8"?>
<svg id="Layer_1" data-name="Layer 1" xmlns="http://www.w3.org/2000/svg" viewBox="0 0 841.89 312.74">
  <g>
    <path d="M22.45,168.18c0-2.82.5-5.64,1.51-8.46,1.01-2.82,2.52-5.37,4.53-7.66,2.02-2.28,4.57-4.13,7.66-5.54,3.09-1.41,6.65-2.12,10.68-2.12,4.7,0,8.66,1.48,11.89,4.43,3.22,2.96,4.84,6.38,4.84,10.28,0,1.61-.24,3.16-.71,4.63-.47,1.48-.94,3.02-1.41,4.63-.47,1.61-.94,3.29-1.41,5.04-.47,1.75-.71,3.63-.71,5.64,0,3.22.4,6.45,1.21,9.67.81,3.22,2.05,6.15,3.73,8.76,1.68,2.62,3.93,4.77,6.75,6.45,2.82,1.68,6.25,2.52,10.28,2.52,7.52,0,13.57-2.15,18.13-6.45,4.56-4.3,8.13-9.6,10.68-15.92,2.55-6.31,4.23-13.06,5.04-20.25.81-7.18,1.21-13.67,1.21-19.44V40.64c0-4.97-1.38-9.3-4.13-13-2.75-3.69-6.35-6.21-10.78-7.56v-2.42h70.12v2.42c-4.43,1.34-8.03,3.86-10.78,7.56-2.75,3.7-4.13,8.03-4.13,13v104.78c0,11.96-1.91,22.2-5.74,30.73-3.83,8.53-9.14,15.48-15.92,20.85-6.78,5.37-14.74,9.3-23.88,11.79-9.14,2.48-19.01,3.73-29.62,3.73-6.85,0-13.77-.77-20.75-2.32-6.99-1.54-13.33-4.1-19.04-7.66-5.71-3.56-10.35-8.16-13.9-13.8-3.56-5.64-5.34-12.49-5.34-20.55Z" fill="#fff"/>
    <path d="M223.74,87.99l4.03,1.61v82.21c0,8.06,1.51,14.07,4.53,18.03,3.02,3.96,6.95,5.94,11.79,5.94,5.91,0,10.91-1.78,15.01-5.34,4.1-3.56,7.22-7.96,9.37-13.2v-47.96c0-4.3-.84-8.46-2.52-12.49-1.68-4.03-4.8-6.58-9.37-7.66v-4.03c2.69,0,6.28-.64,10.78-1.91,4.5-1.28,9.13-2.79,13.9-4.53,4.77-1.74,9.13-3.59,13.1-5.54,3.96-1.95,6.75-3.66,8.36-5.14l4.03,1.61-.2,88.05c0,4.57.97,7.99,2.92,10.28,1.95,2.29,4.2,3.43,6.75,3.43,1.74,0,3.46-.5,5.14-1.51,1.68-1.01,3.19-2.52,4.53-4.53l3.02,1.61c-.94,2.96-2.32,5.88-4.13,8.76-1.81,2.89-4.17,5.47-7.05,7.76-2.89,2.29-6.35,4.1-10.38,5.44-4.03,1.34-8.66,2.01-13.9,2.01-2.42,0-5.07-.27-7.96-.81-2.89-.54-5.58-1.54-8.06-3.02-2.49-1.48-4.57-3.46-6.25-5.94-1.68-2.48-2.59-5.74-2.72-9.77-1.48,2.15-3.56,4.47-6.25,6.95-2.69,2.49-5.81,4.77-9.37,6.85-3.56,2.08-7.52,3.83-11.89,5.24-4.37,1.41-8.97,2.12-13.8,2.12s-9.74-.64-14.31-1.91c-4.57-1.28-8.56-3.29-11.99-6.04-3.43-2.75-6.18-6.31-8.26-10.68-2.08-4.36-3.12-9.57-3.12-15.62v-48.96c0-4.3-.84-8.46-2.52-12.49-1.68-4.03-4.8-6.58-9.37-7.66v-4.03c2.69,0,6.28-.64,10.78-1.91,4.5-1.28,9.13-2.79,13.9-4.53,4.77-1.74,9.13-3.59,13.1-5.54,3.96-1.95,6.75-3.66,8.36-5.14ZM257.39,36l12.49,38.08h-10.08l-38.28-38.08h35.87Z" fill="#fff"/>
    <path d="M334.16,208.48c4.03-1.61,7.32-3.93,9.87-6.95,2.55-3.02,3.83-7.56,3.83-13.6V58.97c0-4.3-.84-8.46-2.52-12.49-1.68-4.03-4.8-6.58-9.37-7.66v-4.03c2.69,0,6.28-.64,10.78-1.91,4.5-1.28,9.13-2.79,13.9-4.53,4.77-1.74,9.13-3.59,13.1-5.54,3.96-1.95,6.75-3.66,8.36-5.14l4.03,1.61v168.65c0,6.04,1.27,10.58,3.83,13.6,2.55,3.02,5.84,5.34,9.87,6.95v2.42h-65.69v-2.42Z" fill="#fff"/>
    <path d="M451.83,141.99c3.89-.67,7.52-1.58,10.88-2.72,3.36-1.14,6.28-2.75,8.77-4.84,2.48-2.08,4.43-4.67,5.84-7.76,1.41-3.09,2.12-6.85,2.12-11.28,0-2.55-.3-5.1-.91-7.66-.6-2.55-1.55-4.84-2.82-6.85-1.28-2.01-2.92-3.66-4.94-4.94-2.01-1.28-4.5-1.91-7.46-1.91-4.97,0-9.07,1.31-12.29,3.93-3.22,2.62-4.84,6.55-4.84,11.79,0,2.55.43,4.94,1.31,7.15.87,2.22,1.31,4.53,1.31,6.95,0,2.15-.54,4.06-1.61,5.74-1.08,1.68-2.49,3.06-4.23,4.13-1.75,1.08-3.66,1.88-5.74,2.42-2.08.54-4.06.81-5.94.81-4.84,0-9.04-1.54-12.59-4.63-3.56-3.09-5.34-7.18-5.34-12.29,0-6.18,1.91-11.32,5.74-15.42,3.83-4.1,8.53-7.39,14.1-9.87,5.57-2.48,11.45-4.23,17.63-5.24,6.18-1.01,11.69-1.51,16.52-1.51,6.45,0,12.73.64,18.84,1.91,6.11,1.28,11.49,3.43,16.12,6.45,4.63,3.02,8.36,7.05,11.18,12.09,2.82,5.04,4.23,11.32,4.23,18.84v50.37c0,1.48.17,3.02.5,4.63.33,1.61.87,3.09,1.61,4.43.74,1.34,1.71,2.45,2.92,3.33,1.21.88,2.69,1.31,4.43,1.31,2.02,0,3.86-.6,5.54-1.81,1.68-1.21,3.05-2.62,4.13-4.23l3.02,1.61c-2.55,8.19-7.02,14.24-13.4,18.13-6.38,3.9-13.74,5.84-22.06,5.84-4.84,0-9.54-.87-14.1-2.62-4.57-1.74-7.86-5.1-9.87-10.08-2.82,1.48-5.71,3.09-8.66,4.84-2.96,1.75-5.98,3.33-9.07,4.74-3.09,1.41-6.21,2.59-9.37,3.53-3.16.94-6.42,1.41-9.77,1.41-4.97,0-9.64-.57-14-1.71-4.37-1.14-8.2-2.99-11.49-5.54-3.29-2.55-5.88-5.77-7.76-9.67-1.88-3.89-2.82-8.59-2.82-14.1,0-6.45,1.27-11.95,3.83-16.52,2.55-4.57,5.91-8.43,10.07-11.59,4.16-3.16,8.9-5.64,14.21-7.46,5.3-1.81,10.71-3.19,16.22-4.13ZM465.94,195.99c2.55,0,4.94-.5,7.15-1.51,2.22-1.01,4.33-2.25,6.35-3.73v-51.58c-4.43,1.21-8.56,2.86-12.39,4.94-3.83,2.08-7.15,4.57-9.97,7.46-2.82,2.89-5.07,6.28-6.75,10.17-1.68,3.9-2.52,8.33-2.52,13.3,0,5.64,1.48,10.55,4.43,14.71,2.95,4.17,7.52,6.25,13.7,6.25Z" fill="#fff"/>
    <path d="M590.86,17.67l4.03,1.61v82.61c1.61-2.55,3.56-4.7,5.84-6.45,2.28-1.74,4.77-3.19,7.46-4.33,2.69-1.14,5.47-1.95,8.36-2.42,2.89-.47,5.74-.71,8.56-.71,9.54,0,17.83,1.58,24.88,4.74,7.05,3.16,12.9,7.49,17.53,13,4.63,5.51,8.13,12.06,10.48,19.65,2.35,7.59,3.53,15.82,3.53,24.68s-1.28,17.73-3.83,25.39c-2.55,7.66-6.32,14.24-11.28,19.75-4.97,5.51-11.12,9.77-18.44,12.79-7.32,3.02-15.75,4.53-25.29,4.53-6.85,0-13.43-.94-19.75-2.82-6.32-1.88-12.02-5.1-17.13-9.67l-26.6,10.88h-2.62V60.79c0-4.43-1.31-8.09-3.93-10.98-2.62-2.89-6.01-4.94-10.18-6.15v-4.03c2.42-.27,6.01-1.24,10.78-2.92,4.77-1.68,9.67-3.63,14.71-5.84,5.04-2.22,9.7-4.53,14-6.95,4.3-2.42,7.25-4.5,8.87-6.25ZM594.89,113.58v72.14c.81,5.64,2.99,10.17,6.55,13.6,3.56,3.43,8.23,5.14,14,5.14s10.18-1.95,13.6-5.84c3.42-3.89,6.04-8.67,7.86-14.31s2.99-11.59,3.53-17.83c.54-6.25.81-11.65.81-16.22,0-4.16-.2-9.23-.6-15.21-.4-5.98-1.45-11.72-3.12-17.23-1.68-5.51-4.2-10.21-7.56-14.1-3.36-3.89-7.99-5.84-13.9-5.84-4.17,0-8.19,1.34-12.09,4.03-3.9,2.69-6.92,6.58-9.07,11.69Z" fill="#fff"/>
    <path d="M735.94,141.99c3.89-.67,7.52-1.58,10.88-2.72,3.36-1.14,6.28-2.75,8.77-4.84,2.48-2.08,4.43-4.67,5.84-7.76,1.41-3.09,2.12-6.85,2.12-11.28,0-2.55-.3-5.1-.91-7.66-.6-2.55-1.55-4.84-2.82-6.85-1.28-2.01-2.92-3.66-4.94-4.94-2.01-1.28-4.5-1.91-7.46-1.91-4.97,0-9.07,1.31-12.29,3.93-3.22,2.62-4.84,6.55-4.84,11.79,0,2.55.43,4.94,1.31,7.15.87,2.22,1.31,4.53,1.31,6.95,0,2.15-.54,4.06-1.61,5.74-1.08,1.68-2.49,3.06-4.23,4.13-1.75,1.08-3.66,1.88-5.74,2.42-2.08.54-4.06.81-5.94.81-4.84,0-9.04-1.54-12.59-4.63-3.56-3.09-5.34-7.18-5.34-12.29,0-6.18,1.91-11.32,5.74-15.42,3.83-4.1,8.53-7.39,14.11-9.87,5.57-2.48,11.45-4.23,17.63-5.24,6.18-1.01,11.69-1.51,16.52-1.51,6.45,0,12.73.64,18.84,1.91,6.11,1.28,11.49,3.43,16.12,6.45,4.63,3.02,8.36,7.05,11.18,12.09,2.82,5.04,4.23,11.32,4.23,18.84v50.37c0,1.48.17,3.02.5,4.63.33,1.61.87,3.09,1.61,4.43.74,1.34,1.71,2.45,2.92,3.33,1.21.88,2.69,1.31,4.43,1.31,2.02,0,3.86-.6,5.54-1.81,1.68-1.21,3.05-2.62,4.13-4.23l3.02,1.61c-2.55,8.19-7.02,14.24-13.4,18.13-6.38,3.9-13.74,5.84-22.06,5.84-4.84,0-9.54-.87-14.1-2.62-4.57-1.74-7.86-5.1-9.87-10.08-2.82,1.48-5.71,3.09-8.66,4.84-2.96,1.75-5.98,3.33-9.07,4.74-3.09,1.41-6.21,2.59-9.37,3.53-3.16.94-6.42,1.41-9.77,1.41-4.97,0-9.64-.57-14-1.71-4.37-1.14-8.2-2.99-11.49-5.54-3.29-2.55-5.88-5.77-7.76-9.67-1.88-3.89-2.82-8.59-2.82-14.1,0-6.45,1.28-11.95,3.83-16.52,2.55-4.57,5.91-8.43,10.07-11.59,4.16-3.16,8.9-5.64,14.21-7.46,5.3-1.81,10.71-3.19,16.22-4.13ZM750.04,195.99c2.55,0,4.94-.5,7.15-1.51,2.22-1.01,4.33-2.25,6.35-3.73v-51.58c-4.43,1.21-8.56,2.86-12.39,4.94-3.83,2.08-7.15,4.57-9.97,7.46-2.82,2.89-5.07,6.28-6.75,10.17-1.68,3.9-2.52,8.33-2.52,13.3,0,5.64,1.48,10.55,4.43,14.71,2.95,4.17,7.52,6.25,13.7,6.25Z" fill="#fff"/>
  </g>
  <g>
    <path d="M59.26,247.83c0,.62-.29.93-.88.93-.79,0-1.87-1.1-3.25-3.3-1.38-2.2-2.81-3.34-4.31-3.42-.91-.04-3.7-.06-8.38-.06v32.51c0,1.57.47,2.64,1.42,3.19.43.24,1.28.43,2.54.59.94.12,1.42.41,1.42.89,0,.87-1.02,1.3-3.07,1.3-.98,0-2.46-.04-4.42-.12-1.97-.08-3.42-.12-4.37-.12-.43,0-1.02.03-1.77.08-.87.11-1.46.16-1.77.16-1.57.04-2.36-.35-2.36-1.18,0-.47.47-.79,1.4-.95,1.28-.2,2.14-.43,2.57-.71.93-.55,1.4-1.54,1.4-2.95v-32.68c-4.8,0-7.65.02-8.55.06-1.38.08-2.71,1.22-4.01,3.42-1.3,2.2-2.34,3.3-3.13,3.3-.67,0-1-.33-1-1,0-1.06.24-2.75.71-5.07.55-2.6,1.08-4.07,1.59-4.42.75.07,1.87.2,3.36.39,3.38.37,6.35.55,8.91.55,7.75,0,13.88-.14,18.41-.41,1.14-.14,2.81-.32,5.02-.53.55.23,1.12,1.71,1.71,4.43.55,2.41.83,4.12.83,5.13Z" fill="#fff"/>
    <path d="M84.15,266.55c0,4.08-1.3,7.48-3.89,10.19-2.6,2.71-5.94,4.06-10.03,4.06s-7.37-1.34-9.97-4.03c-2.6-2.69-3.89-6.07-3.89-10.16s1.3-7.45,3.89-10.21c2.6-2.77,5.9-4.15,9.91-4.15s7.39,1.36,10.03,4.09c2.63,2.73,3.95,6.13,3.95,10.21ZM77.19,266.58c0-8.02-2.36-12.04-7.08-12.04s-6.9,4.01-6.9,12.04,2.3,12.04,6.9,12.04,7.08-4.01,7.08-12.04Z" fill="#fff"/>
    <path d="M117.78,279.03c0,.87-.35,1.3-1.06,1.3l-12.51-.06c-.55,0-.83-.39-.83-1.18,0-.63.62-1,1.86-1.12,1.24-.12,1.92-.43,2.04-.94.2-.75.29-2.44.29-5.07v-9.5c0-4.17-1.84-6.25-5.52-6.25-1.5,0-2.83.53-3.97,1.59-1.15,1.06-1.72,2.32-1.72,3.78v13.51c0,1.42.36,2.3,1.08,2.66.2.08.9.16,2.09.24.72.04,1.08.39,1.08,1.06,0,.83-.35,1.24-1.06,1.24l-12.8.06c-.59,0-.88-.41-.88-1.24,0-.67.38-1.02,1.15-1.06,1.34-.12,2.03-.2,2.07-.24.77-.24,1.15-.94,1.15-2.12v-17.58c0-1.06-.71-1.68-2.12-1.86s-2.12-.58-2.12-1.21c0-.35.14-.61.41-.77.67-.35,2.13-.79,4.4-1.3,2.26-.51,3.81-.77,4.63-.77s1.18.32,1.18.94c0,.43-.04,1.08-.12,1.95-.08.87-.12,1.51-.12,1.95,2.96-3.11,5.92-4.66,8.88-4.66,2.8,0,4.95.94,6.45,2.83,1.3,1.73,1.95,4.03,1.95,6.9v13.1c0,1.34.35,2.18,1.05,2.54.19.12.87.22,2.04.29.7.04,1.05.37,1.05,1Z" fill="#fff"/>
    <path d="M164.51,278.97c-2.28,1.1-4.58,1.65-6.9,1.65-1.38,0-2.28-1.12-2.71-3.36-1.89,2.36-4.58,3.54-8.08,3.54-3.74,0-6.63-1.39-8.67-4.17-1.85-2.51-2.77-5.68-2.77-9.52s1.04-7.23,3.13-10.05c2.28-3.13,5.31-4.7,9.09-4.7,3.54,0,5.96.88,7.26,2.66v-11.15c0-1.26-.37-2.1-1.12-2.54-.47-.28-1.42-.45-2.83-.53v-1.24c2.29-.35,4.55-.81,6.76-1.36l2.62-.65c.47,0,.7.28.7.83v37.64c0,1.34,1.14,1.97,3.42,1.89l.12,1.06ZM154.83,270.92v-9.74c0-1.76-.54-3.24-1.62-4.43-1.08-1.19-2.5-1.79-4.26-1.79-2.54,0-4.4,1.37-5.58,4.11-.86,2.04-1.29,4.52-1.29,7.46s.47,5.28,1.41,7.4c1.25,2.78,3.09,4.17,5.52,4.17,1.92,0,3.39-.74,4.4-2.23.94-1.33,1.41-2.97,1.41-4.93Z" fill="#fff"/>
    <path d="M178.84,253.25c0,.98-.03,2.46-.09,4.42-.06,1.97-.09,3.44-.09,4.42v16.46c0,4.21-.3,7.26-.89,9.14-.95,3.11-2.92,5.27-5.92,6.49-1.46.59-3.08.88-4.86.88-3,0-4.5-.92-4.5-2.77,0-.59.25-1.34.74-2.24.5-.91,1.02-1.36,1.57-1.36.24,0,.93.53,2.08,1.59,1.15,1.06,2.02,1.59,2.61,1.59,2.1,0,3.15-2.4,3.15-7.2v-25.96c0-1.1-.39-1.83-1.18-2.18-.2-.08-.94-.24-2.24-.47-.79-.12-1.18-.43-1.18-.94s.37-.86,1.11-1.06c1.25-.2,3.13-.55,5.63-1.06,2.07-.51,3.17-.77,3.29-.77.51,0,.76.33.76,1ZM179.02,242.51c0,.98-.35,1.85-1.06,2.6-.71.75-1.55,1.12-2.54,1.12s-1.78-.37-2.51-1.12c-.73-.75-1.09-1.59-1.09-2.54s.35-1.8,1.06-2.57c.71-.77,1.53-1.15,2.48-1.15,1.02,0,1.89.35,2.6,1.06s1.06,1.57,1.06,2.6Z" fill="#fff"/>
    <path d="M211.35,264.07c0,.98-.35,1.47-1.06,1.47l-17.29.06c.24,7.85,3.26,11.77,9.09,11.77,2.52,0,4.96-1.3,7.32-3.89l1.53,1.46c-2.59,3.9-6.22,5.85-10.89,5.85-4.24,0-7.53-1.29-9.89-3.86-2.35-2.57-3.53-6-3.53-10.27,0-3.96,1.12-7.32,3.35-10.07,2.39-2.94,5.53-4.42,9.42-4.42,3.45,0,6.31,1.12,8.56,3.36,2.26,2.24,3.38,5.08,3.38,8.53ZM202.56,247.82s-.2.15-.59.32c-.39.18-.63.27-.71.27-.24,0-1.73-.84-4.48-2.54-2.28-1.42-3.91-2.47-4.9-3.16-.98-.69-1.48-1.41-1.48-2.15,0-1.42.73-2.12,2.18-2.12.83,0,1.75.53,2.77,1.59,4.8,5,7.2,7.59,7.2,7.79ZM204.98,262.1c0-5.08-1.85-7.62-5.55-7.62-2.12,0-3.72.96-4.78,2.87-.87,1.52-1.32,3.44-1.36,5.74h3.83c1.69.04,2.95.06,3.78.06,2.71,0,4.07-.35,4.07-1.05Z" fill="#fff"/>
    <path d="M255.36,264.07c0,.98-.35,1.47-1.06,1.47l-17.29.06c.24,7.85,3.26,11.77,9.09,11.77,2.52,0,4.96-1.3,7.32-3.89l1.53,1.46c-2.59,3.9-6.22,5.85-10.89,5.85-4.24,0-7.53-1.29-9.89-3.86-2.35-2.57-3.53-6-3.53-10.27,0-3.96,1.12-7.32,3.35-10.07,2.39-2.94,5.53-4.42,9.42-4.42,3.45,0,6.31,1.12,8.56,3.36,2.26,2.24,3.38,5.08,3.38,8.53ZM248.99,262.1c0-5.08-1.85-7.62-5.55-7.62-2.12,0-3.72.96-4.78,2.87-.87,1.52-1.32,3.44-1.36,5.74h3.83c1.69.04,2.95.06,3.78.06,2.71,0,4.07-.35,4.07-1.05Z" fill="#fff"/>
    <path d="M280.14,272.13c0,2.75-.95,4.91-2.86,6.46-1.91,1.55-4.28,2.33-7.11,2.33-2.12,0-4.27-.37-6.43-1.12-2.87-1.02-4.31-2.38-4.31-4.07,0-.75.51-1.46,1.53-2.12.9-.63,1.75-.94,2.54-.94.47,0,.86.51,1.18,1.53.47,1.34.92,2.26,1.36,2.77.86,1.02,2.16,1.53,3.89,1.53,1.3,0,2.43-.42,3.39-1.27.96-.84,1.45-1.9,1.45-3.16,0-1.61-1.2-2.97-3.6-4.07-2.24-.98-4.48-1.99-6.73-3.01-2.4-1.53-3.6-3.64-3.6-6.31s1-4.62,3.01-6.19c1.85-1.46,4.09-2.2,6.73-2.24,1.77,0,3.62.41,5.55,1.24,2.36,1.06,3.54,2.36,3.54,3.89,0,.75-.37,1.44-1.12,2.07-.75.63-1.51.94-2.3.94-.51,0-.96-.49-1.36-1.47-.51-1.38-.94-2.28-1.3-2.71-.79-.98-1.95-1.47-3.48-1.47-2.83,0-4.25,1.26-4.25,3.78,0,1.61,1.24,2.95,3.72,4.01,4.44,1.89,6.73,2.87,6.84,2.95,2.48,1.57,3.72,3.8,3.72,6.67Z" fill="#fff"/>
    <path d="M302.56,276.78c0,.39-.2.8-.59,1.22-1.69,1.87-3.93,2.8-6.73,2.8-4.64,0-6.96-2.26-6.96-6.77v-17.95h-2.3c-1.42,0-2.12-.37-2.12-1.12,0-.51.41-.86,1.23-1.06.62-.16,1.24-.31,1.87-.47,1.09-.55,1.94-1.64,2.57-3.29.43-1.37.88-2.72,1.34-4.05s1.19-2,2.16-2c.85,0,1.28.38,1.28,1.13v8.19h6.02c.9,0,1.36.45,1.36,1.36s-.43,1.3-1.3,1.3h-6.08v16.77c0,3.33,1.12,5,3.36,5,.71,0,1.52-.31,2.45-.94.92-.63,1.48-.94,1.68-.94.51,0,.77.27.77.82Z" fill="#fff"/>
    <path d="M347.99,266.2c0,4-1.12,7.38-3.36,10.13-2.4,2.98-5.57,4.47-9.5,4.47-3.11,0-6.14-1.2-9.09-3.6-.31.2-1.06,1.14-2.24,2.83l-1.77-.24c.2-1.65.29-3.3.29-4.96v-30.97c0-1.26-.37-2.1-1.12-2.54-.47-.28-1.42-.45-2.83-.53v-1.24c2.69-.43,4.92-.86,6.71-1.3l2.85-.71c.48,0,.73.26.77.77,0,1.22-.03,2.89-.08,5.01-.1,2.4-.16,4.09-.16,5.07v7.43c.83-1.06,1.94-1.93,3.33-2.6,1.4-.67,2.78-1,4.16-1,3.89,0,6.92,1.39,9.09,4.18,1.97,2.51,2.95,5.77,2.95,9.77ZM341.14,267.14c0-8.16-2.2-12.24-6.61-12.24-4.09,0-6.14,3.71-6.14,11.12,0,8.47,2.06,12.71,6.19,12.71,4.37,0,6.55-3.86,6.55-11.59Z" fill="#fff"/>
    <path d="M367.51,279.15c0,.71-.28,1.08-.83,1.12-1.18.12-2.87.14-5.07.06h-9.26c-.55,0-.83-.43-.83-1.29,0-.67.78-1.05,2.33-1.15,1.55-.1,2.43-.58,2.63-1.44.12-.55.18-1.33.18-2.36v-5.24c0-5.49-.02-8.85-.06-10.07-.04-1.1-.45-1.82-1.24-2.18-.2-.12-.92-.27-2.18-.47-.75-.12-1.12-.43-1.12-.94,0-.47.43-.8,1.3-1,2.44-.59,5.39-1.2,8.85-1.83.51,0,.77.24.77.71,0,1.02-.05,2.55-.15,4.59-.1,2.04-.15,3.57-.15,4.59v12.72c0,1.45.41,2.35,1.24,2.71.2.12.98.22,2.36.29.83.08,1.24.47,1.24,1.18ZM362.97,242.57c0,.98-.35,1.85-1.05,2.6-.7.75-1.54,1.12-2.52,1.12s-1.79-.37-2.46-1.12c-.66-.75-.99-1.61-.99-2.6s.33-1.84.99-2.57c.66-.73,1.46-1.09,2.4-1.09s1.82.36,2.54,1.09c.72.73,1.08,1.58,1.08,2.57Z" fill="#fff"/>
    <path d="M395.89,264.07c0,.98-.35,1.47-1.06,1.47l-17.29.06c.24,7.85,3.26,11.77,9.09,11.77,2.52,0,4.96-1.3,7.32-3.89l1.53,1.46c-2.59,3.9-6.22,5.85-10.89,5.85-4.24,0-7.53-1.29-9.89-3.86-2.35-2.57-3.53-6-3.53-10.27,0-3.96,1.12-7.32,3.35-10.07,2.39-2.94,5.53-4.42,9.42-4.42,3.45,0,6.31,1.12,8.56,3.36,2.26,2.24,3.38,5.08,3.38,8.53ZM389.52,262.1c0-5.08-1.85-7.62-5.55-7.62-2.12,0-3.72.96-4.78,2.87-.87,1.52-1.32,3.44-1.36,5.74h3.83c1.69.04,2.95.06,3.78.06,2.71,0,4.07-.35,4.07-1.05Z" fill="#fff"/>
    <path d="M432.06,279.03c0,.87-.35,1.3-1.06,1.3l-12.51-.06c-.55,0-.83-.39-.83-1.18,0-.63.62-1,1.86-1.12,1.24-.12,1.92-.43,2.04-.94.2-.75.29-2.44.29-5.07v-9.5c0-4.17-1.84-6.25-5.52-6.25-1.5,0-2.83.53-3.97,1.59-1.15,1.06-1.72,2.32-1.72,3.78v13.51c0,1.42.36,2.3,1.08,2.66.2.08.9.16,2.09.24.72.04,1.08.39,1.08,1.06,0,.83-.35,1.24-1.06,1.24l-12.8.06c-.59,0-.88-.41-.88-1.24,0-.67.38-1.02,1.15-1.06,1.34-.12,2.03-.2,2.07-.24.77-.24,1.15-.94,1.15-2.12v-17.58c0-1.06-.71-1.68-2.12-1.86s-2.12-.58-2.12-1.21c0-.35.14-.61.41-.77.67-.35,2.13-.79,4.4-1.3,2.26-.51,3.81-.77,4.63-.77s1.18.32,1.18.94c0,.43-.04,1.08-.12,1.95-.08.87-.12,1.51-.12,1.95,2.96-3.11,5.92-4.66,8.88-4.66,2.8,0,4.95.94,6.45,2.83,1.3,1.73,1.95,4.03,1.95,6.9v13.1c0,1.34.35,2.18,1.05,2.54.19.12.87.22,2.04.29.7.04,1.05.37,1.05,1Z" fill="#fff"/>
    <path d="M476.07,284.34c0,3.5-1.83,6.21-5.49,8.14-2.95,1.53-6.35,2.3-10.21,2.3-2.79,0-5.55-.43-8.26-1.3-3.74-1.18-5.6-2.83-5.6-4.96,0-.94.42-1.99,1.27-3.13.84-1.14,1.72-1.71,2.62-1.71s1.67.79,2.18,2.36c.71,2.16,1.38,3.6,2.01,4.31,1.42,1.57,3.66,2.36,6.73,2.36,2.12,0,4.03-.45,5.72-1.36,2.01-1.14,3.01-2.69,3.01-4.66,0-3.11-2.7-4.7-8.08-4.78-3.34-.04-5.8-.26-7.38-.65-3.19-.79-4.78-2.28-4.78-4.48,0-1.26.75-2.36,2.24-3.3.75-.47,2.04-1.06,3.89-1.77-2.24-.59-4.03-1.7-5.37-3.33-1.34-1.63-2.01-3.59-2.01-5.87,0-3.03,1.26-5.49,3.78-7.38,2.32-1.69,5.03-2.54,8.14-2.54,2.52,0,4.76.53,6.73,1.59,1.49-2.99,2.75-4.48,3.78-4.48.51,0,.92.35,1.24,1.06.31.71.47,1.36.47,1.95,0,.43-.67.81-2.01,1.12-1.34.32-2.01.65-2.01,1,0,.2.33.65,1,1.36.83.91,1.44,1.71,1.83,2.42.67,1.22,1,2.52,1,3.89,0,3.5-1.47,6.1-4.42,7.79-2.4,1.38-5.49,2.06-9.26,2.06-.67,0-1.41.33-2.21,1-.81.67-1.21,1.34-1.21,2.01,0,1.14,1.79,1.79,5.37,1.95,5.19.16,8.5.43,9.91.83,3.58.94,5.37,3.01,5.37,6.19ZM466.69,262.51c0-2.12-.45-3.89-1.36-5.31-1.06-1.65-2.6-2.48-4.6-2.48s-3.72.79-4.9,2.36c-1.02,1.42-1.53,3.21-1.53,5.37s.49,3.85,1.48,5.31c1.14,1.69,2.71,2.54,4.72,2.54s3.58-.83,4.72-2.48c.98-1.45,1.47-3.22,1.47-5.31Z" fill="#fff"/>
    <path d="M502.61,264.07c0,.98-.35,1.47-1.06,1.47l-17.29.06c.24,7.85,3.26,11.77,9.08,11.77,2.52,0,4.96-1.3,7.32-3.89l1.53,1.46c-2.59,3.9-6.22,5.85-10.89,5.85-4.24,0-7.53-1.29-9.89-3.86-2.35-2.57-3.53-6-3.53-10.27,0-3.96,1.12-7.32,3.35-10.07,2.39-2.94,5.53-4.42,9.42-4.42,3.45,0,6.31,1.12,8.56,3.36,2.26,2.24,3.38,5.08,3.38,8.53ZM496.24,262.1c0-5.08-1.86-7.62-5.57-7.62-2.13,0-3.74.96-4.8,2.87-.87,1.52-1.32,3.44-1.36,5.74h3.85c1.7.04,2.96.06,3.79.06,2.73,0,4.09-.35,4.09-1.05ZM500.02,240.5c0,.79-.53,1.55-1.59,2.3-.75.55-2.34,1.57-4.78,3.07-2.71,1.65-4.21,2.5-4.48,2.54l-1.36-.47c.04-.31,2.46-2.95,7.26-7.91,1.02-1.06,1.91-1.59,2.66-1.59,1.53,0,2.3.69,2.3,2.07Z" fill="#fff"/>
    <path d="M529.4,255.72c0,.83-.42,1.62-1.25,2.39-.83.77-1.68,1.15-2.55,1.15-.79,0-1.34-.48-1.66-1.45-.32-.96-.97-1.45-1.96-1.45-1.23,0-2.27.65-3.14,1.96-.79,1.15-1.19,2.37-1.19,3.68l-.06,13.22c0,1.34.36,2.19,1.08,2.55.16.08.86.16,2.09.24.72.08,1.08.43,1.08,1.07,0,.79-.35,1.19-1.06,1.19l-12.63.06c-.59,0-.88-.41-.88-1.24,0-.59.36-.94,1.09-1.06,1.49-.28,2.35-.51,2.58-.71.34-.35.55-1.32.63-2.89.04-1.14.06-2.2.06-3.19v-12.51c-.2-1.42-.79-2.28-1.77-2.6-.47-.12-1.2-.29-2.18-.53-.28-.08-.41-.31-.41-.71,0-.47.2-.82.59-1.03s1.77-.55,4.13-1c2.36-.45,3.89-.68,4.6-.68.67,0,1,.29,1,.88v4.42c.78-1.33,1.78-2.51,2.99-3.56,1.45-1.17,2.82-1.75,4.11-1.75,1.1,0,2.11.32,3.05.94,1.1.71,1.64,1.57,1.64,2.6Z" fill="#fff"/>
    <path d="M557.07,264.07c0,.98-.35,1.47-1.06,1.47l-17.29.06c.24,7.85,3.26,11.77,9.08,11.77,2.52,0,4.96-1.3,7.32-3.89l1.53,1.46c-2.59,3.9-6.22,5.85-10.89,5.85-4.24,0-7.53-1.29-9.89-3.86-2.35-2.57-3.53-6-3.53-10.27,0-3.96,1.12-7.32,3.35-10.07,2.39-2.94,5.53-4.42,9.42-4.42,3.45,0,6.31,1.12,8.56,3.36,2.26,2.24,3.38,5.08,3.38,8.53ZM550.7,262.1c0-5.08-1.86-7.62-5.57-7.62-2.13,0-3.74.96-4.8,2.87-.87,1.52-1.32,3.44-1.36,5.74h3.85c1.7.04,2.96.06,3.79.06,2.73,0,4.09-.35,4.09-1.05ZM554.47,240.5c0,.79-.53,1.55-1.59,2.3-.75.55-2.34,1.57-4.78,3.07-2.71,1.65-4.21,2.5-4.48,2.54l-1.36-.47c.04-.31,2.46-2.95,7.26-7.91,1.02-1.06,1.91-1.59,2.66-1.59,1.53,0,2.3.69,2.3,2.07Z" fill="#fff"/>
  </g>
  <g>
    <g>
      <g>
        <path d="M753.15,226.72c1.27,0,2.41-.79,2.41-2.33,0-1.38-1.03-2.33-2.41-2.33-1.46,0-2.41.87-2.41,2.33,0,1.33.98,2.33,2.41,2.33Z" fill="#fff"/>
        <path d="M755.34,238.2v-10.01l-.49-.3c-1.82,1.44-3.77,2.47-5.59,3.15v.57c1.38.11,2.03.71,2.03,1.82v5.32c0,2.09-.84,2.66-2.03,2.85v.65c2.9-.08,5.21-.08,7.84,0v-.65c-1.06-.19-1.76-.95-1.76-3.39Z" fill="#fff"/>
        <path d="M767.12,240.07c-2.96,0-4.83-2.14-4.8-6.21.03-3.55,1.27-5.1,2.77-5.1,1.17,0,1.84.54,1.84,1.41,0,.46-.35.81-.35,1.49,0,1.17.79,2.14,2.06,2.14,1.14,0,2.06-.79,2.06-2.06,0-2.03-2.28-3.69-5.64-3.66-4.15.03-6.86,2.88-6.86,7.19s2.85,7.24,6.84,7.24c2.58,0,4.94-1.41,5.78-3.58l-.43-.3c-.79.92-1.9,1.44-3.26,1.44Z" fill="#fff"/>
        <path d="M799.26,234.45l.59-.23c.24-.09.5-.25.77-.46l.36-.28.8.49v1.24c.21-.1.4-.23.58-.37l.13-.1v-2.62c0-2.39-1.65-4.04-3.93-4.04-1.82,0-3.96.95-5.4,2.52v-2.41l-.49-.3c-1.82,1.44-3.66,2.47-5.48,3.15v.57c1.38.11,2.03.71,2.03,1.82v5.32c0,2.09-.84,2.66-2.03,2.85v.65c2.9-.08,5.21-.08,7.84,0v-.65c-1.06-.19-1.76-.95-1.76-3.39v-6.81c.87-.95,2.09-1.49,3.26-1.49s1.93.95,1.93,3.04v1.81c.3.02.57.09.81.2v-.49Z" fill="#fff"/>
        <path d="M802.18,238.88l-.68-.02c-.29,0-.54-.01-.79-.01s-.5,0-.79.01l-.68.02v-.17c-.24.11-.51.18-.81.2-.05,1.95-.86,2.49-1.76,2.67v.65c2.63-.08,4.94-.08,7.84,0v-.65c-1.2-.17-1.89-.8-2.01-2.7-.11-.02-.22-.06-.33-.11v.11Z" fill="#fff"/>
        <path d="M814.53,240.07c-1.38,0-2.49-.42-3.29-1.27-.23.08-.48.12-.75.12-.33,0-.64-.07-.91-.21v.17l-.68-.02c-.26,0-.5-.01-.74-.01s-.5,0-.78.01l-.6.02c-.09.02-.19.03-.29.04,1.15,2.17,3.33,3.6,5.95,3.6s4.96-1.46,5.72-3.58l-.24-.18c-.07.03-.14.06-.22.08-.76.76-1.84,1.24-3.17,1.24Z" fill="#fff"/>
        <path d="M817.9,234.26c.19-3.91-2.2-6.18-5.78-6.18s-6.16,2.63-6.48,6.43c.08-.07.16-.14.24-.21l.36-.34.79.46c.11-.51.54-.86,1.11-.86.64,0,1.14.49,1.14,1.12,0,.13-.02.26-.06.38h.02v.12c.16-.13.34-.22.54-.29,0-.05-.01-.11-.01-.16,2.6-.14,5.24-.3,8.14-.43ZM809.73,233.58c.03-3.36.81-4.8,2.22-4.8,1.25,0,2.2,1.38,2.31,4.96-1.44.08-2.85.19-4.53.27v-.43Z" fill="#fff"/>
        <path d="M785.88,233.76c-.02-.08-.04-.16-.06-.25h0l-.02-.07c-.17-.63-.42-1.23-.76-1.79h0c-.15-.25-.32-.49-.5-.73-.56-.71-1.23-1.31-2.01-1.76,0-.02,0-.04,0-.06,0-.16-.13-.29-.29-.29-.09,0-.16.04-.22.1-.52-.26-1.08-.45-1.64-.57-.01-.15-.14-.26-.29-.26-.12,0-.22.07-.26.17-.31-.04-.63-.06-.95-.06-.26,0-.52.01-.77.04-.03-.08-.11-.14-.2-.14-.11,0-.21.09-.22.2-.55.09-1.08.25-1.59.46-.13.06-.26.12-.39.18-.05-.07-.13-.11-.23-.11-.16,0-.28.13-.28.28,0,.03,0,.07.02.1-.51.3-.97.67-1.4,1.09-.19.19-.37.39-.53.59-.07-.03-.14-.05-.21-.05-.28,0-.51.23-.51.51,0,.14.06.27.15.37-.16.27-.3.56-.43.85-.17.4-.3.8-.39,1.22,0,0,0,0,0,0-.19,0-.35.16-.35.35,0,.16.1.29.24.33-.04.29-.05.59-.05.89s.02.59.05.89c-.05.03-.08.09-.08.15,0,.08.05.15.12.17.12.69.34,1.36.65,2,.05.11.11.22.17.32-.08.08-.14.19-.14.32,0,.24.19.43.43.43.06,0,.12-.01.17-.03.35.48.77.92,1.23,1.3,0,.01,0,.03,0,.04,0,.11.09.2.2.2.02,0,.05,0,.07-.01.59.44,1.23.78,1.92,1.02.76.26,1.55.4,2.37.4s1.6-.13,2.36-.4c.73-.25,1.41-.62,2.03-1.1.61-.47,1.14-1.03,1.57-1.67.43-.63.75-1.32.96-2.05h-.02c.12-.42.2-.84.25-1.28.08-.76.03-1.53-.14-2.28ZM780.37,228.46c.55.12,1.09.3,1.6.55,0,.03-.01.06-.01.09,0,.04,0,.08.02.11l-1.16.28c-.04-.1-.15-.18-.27-.18-.02,0-.03,0-.04,0l-.26-.71c.06-.04.1-.09.12-.16ZM777.08,229.58s.09-.07.1-.13l1.11.04c.01.07.04.14.08.19l-.9,1.03s-.07-.03-.11-.03c0,0,0,0,0,0l-.27-1.1ZM777.25,230.71c-.05.03-.1.08-.12.14h-1.49s-.01-.04-.02-.05l1.22-1.23s.08.05.13.05l.27,1.1ZM778.46,229.76c.06.04.13.06.2.06.18,0,.32-.12.36-.29l1.24.1s0,.02,0,.02l-2.7,1.12.9-1.02ZM780.31,229.77c.05.07.13.12.23.13l.1.92c-.1.01-.18.07-.22.15-.49-.17-1.01-.26-1.54-.26-.43,0-.85.06-1.26.17l2.69-1.11ZM779.9,228.58c.05.05.12.08.2.08.02,0,.03,0,.04,0l.26.71c-.06.04-.11.1-.13.17l-1.24-.1c0-.06-.02-.12-.05-.17l.92-.67ZM778.12,228.34c.25-.03.5-.04.76-.04.31,0,.62.02.92.06,0,0,0,0,0,0,0,.04,0,.08.03.12l-.93.67c-.07-.06-.15-.09-.25-.09-.06,0-.11.01-.16.03l-.43-.65s.05-.07.05-.11ZM777.77,228.49s.08.04.13.04c.02,0,.05,0,.07-.01l.43.65c-.06.06-.1.13-.12.22l-1.1-.04s-.03-.08-.06-.11l.64-.75ZM776.14,228.86c.5-.21,1.02-.36,1.56-.46l-.66.78s-.04,0-.06,0c-.09,0-.16.05-.2.12l-1.02-.2s0-.04,0-.07c.13-.06.25-.12.38-.18ZM775.53,229.38c.1-.02.18-.08.21-.17l1.02.2s0,.04.01.06l-1.21,1.23h0s-.02.02-.02.02c-.01,0-.03-.01-.04-.02l.04-1.32ZM775.43,231.13c.1,0,.19-.07.21-.16h1.48s.01.06.03.08c-.57.23-1.1.58-1.54,1.02-.36.36-.66.77-.88,1.22l.7-2.16s0,0,.01,0ZM773.2,235.6l1.13-1.53s.05.03.08.04c-.11.4-.17.81-.17,1.24,0,.38.05.76.14,1.12-.08.03-.16.07-.21.13l-.92-.71s.03-.08.03-.12c0-.07-.03-.13-.07-.18ZM774.32,233.51l-.59-.56s.03-.07.03-.1c0-.04-.01-.08-.03-.11l1.57-1.61-.75,2.32s-.01,0-.02,0c-.08,0-.15.03-.21.07ZM774.25,233.59c-.04.05-.06.11-.06.18l-1.97.24s-.04-.08-.07-.11l1.26-.89s.09.05.14.05c.04,0,.08-.01.11-.03l.59.56ZM773.9,230.37c.42-.42.88-.77,1.37-1.07.04.04.09.07.14.08l-.04,1.32c-.09.02-.16.1-.17.2l-1.65.31c-.03-.1-.09-.19-.18-.26.16-.2.33-.39.51-.57ZM773.58,231.35s0-.02,0-.04l1.65-.31s0,.01,0,.02l-1.59,1.63s-.07-.03-.11-.03c0,0,0,0,0,0l-.26-.81c.18-.08.31-.26.31-.47ZM772.39,232.61c.12-.28.26-.56.41-.82.08.05.17.08.27.08.03,0,.07,0,.1,0l.26.81c-.06.04-.1.11-.1.19,0,.03,0,.05.01.08l-1.28.91s-.03-.02-.05-.02c.09-.41.22-.81.38-1.19ZM771.83,235.35c0-.29.02-.58.05-.87.05,0,.1-.01.14-.03l.77,1.14s-.08.12-.08.19c0,.03,0,.05.01.08l-.74.39s-.07-.04-.11-.04c-.03-.28-.05-.57-.05-.86ZM772.85,238.77s-.08.02-.11.04c-.06-.1-.11-.2-.16-.31-.31-.62-.53-1.27-.64-1.95.07-.02.12-.09.12-.17,0-.01,0-.03,0-.04l.74-.39s.06.06.1.07l-.03,2.74ZM772.89,235.53l-.77-1.14c.07-.06.11-.16.11-.26,0,0,0,0,0,0l1.97-.24s.03.07.05.1l-1.14,1.54s-.07-.03-.12-.03c-.04,0-.07,0-.1.02ZM772.96,238.76l.03-2.7s0,0,0,0c.07,0,.13-.03.18-.07l.92.71c-.05.08-.07.17-.07.27,0,.15.06.28.17.38l-1.07,1.46s-.1-.04-.16-.04ZM774.47,240.74s-.06.02-.08.05c-.44-.37-.84-.79-1.19-1.25.1-.08.16-.2.16-.34,0,0,0-.01,0-.02l.93-.15c.04.07.1.11.18.13v1.58ZM774.47,238.65c-.12.02-.21.13-.21.26,0,0,0,0,0,.01l-.92.15c-.02-.08-.07-.15-.13-.2l1.06-1.46c.06.03.13.06.2.06v1.18ZM774.69,240.82s-.06-.07-.11-.08v-1.58s.05-.01.07-.03l.87,1.02s-.04.09-.04.14c0,.07.03.13.07.17l-.87.36ZM774.59,238.65v-1.18c.05,0,.1-.02.15-.04.23.47.55.89.93,1.26l-.89.14c-.02-.09-.1-.16-.19-.19ZM775.85,240.09s-.08-.04-.13-.04c-.04,0-.07,0-.11.03l-.88-1.02s.04-.06.04-.1l.9-.14c.03.06.09.1.16.1,0,0,0,0,0,0v1.18ZM776,238.82s.03-.06.03-.09c0-.1-.08-.18-.18-.18-.05,0-.09.02-.12.05-.37-.36-.67-.77-.89-1.21.13-.09.21-.24.21-.42,0-.28-.23-.51-.51-.51-.01,0-.03,0-.04,0-.09-.36-.14-.73-.14-1.1,0-.42.06-.82.16-1.21,0,0,.01,0,.02,0,.19,0,.35-.16.35-.35,0-.11-.06-.22-.14-.28.22-.5.54-.96.94-1.36.45-.45.97-.79,1.55-1.01.04.02.08.04.13.04.11,0,.2-.07.23-.16.41-.12.85-.19,1.29-.19.52,0,1.03.09,1.51.26,0,0,0,.01,0,.02,0,.16.13.29.29.29.08,0,.15-.03.2-.08.92.46,1.66,1.22,2.1,2.16v.02c.29.76.47,1.83.33,2.62-.15.86-.55,1.67-1.16,2.3-.69.72-1.48,1.07-1.48,1.07-.56.24-1.17.37-1.79.37-1.05,0-2.08-.37-2.88-1.04Z" fill="#fff"/>
      </g>
      <g>
        <path d="M794.45,238.03c0-.31-.01-.62-.02-.93h.11c.29.67.72,1.03,1.09,1.03.24,0,.39-.16.39-.37,0-.59-1.6-.58-1.6-1.55,0-.53.42-.82,1.07-.82.3,0,.72.08.91.17,0,.25-.01.51,0,.76h-.11c-.3-.58-.54-.81-.87-.81-.22,0-.36.14-.36.35,0,.57,1.59.63,1.59,1.51,0,.54-.37.88-1.16.88-.33,0-.86-.1-1.04-.23Z" fill="#fff"/>
        <path d="M796.95,236.83c0-.88.53-1.44,1.4-1.44.81.02,1.35.59,1.35,1.45s-.53,1.42-1.4,1.42c-.79,0-1.34-.58-1.35-1.43ZM798.86,237.01c0-1.06-.16-1.48-.57-1.48-.34,0-.49.32-.49,1.12,0,1.05.16,1.48.57,1.48.34,0,.48-.32.49-1.12Z" fill="#fff"/>
        <path d="M799.91,238.07c.24-.04.4-.15.4-.57v-2.13c0-.19-.1-.31-.3-.34l-.1-.02v-.11l.18-.07c.31-.12.63-.32.93-.55l.1.06v3.07c0,.48.14.64.4.67v.13c-.58-.02-1.03-.02-1.61,0v-.13Z" fill="#fff"/>
        <path d="M802.06,237.46v-1c0-.21-.15-.36-.4-.36v-.11c.36-.13.75-.34,1.11-.62l.1.06v1.88c0,.41.14.6.38.6s.43-.11.59-.29v-1.15c0-.21-.15-.36-.4-.36v-.11c.36-.13.75-.34,1.11-.62l.1.06v1.95c0,.31.11.46.4.52v.11c-.43.02-.73.1-1.09.25l-.1-.06v-.43c-.27.31-.66.5-1.02.5s-.78-.16-.78-.8Z" fill="#fff"/>
        <path d="M805.63,237.34v-1.69h-.53v-.08c.58-.23.91-.5,1.23-.81l.1.06v.69h.62v.14h-.62v1.58c0,.4.23.62.47.62.09,0,.17-.03.22-.08l.08.08c-.18.26-.46.4-.75.4-.46,0-.82-.33-.82-.92Z" fill="#fff"/>
        <path d="M807.36,238.07c.24-.04.4-.15.4-.57v-1.06c0-.22-.13-.34-.4-.36v-.11c.36-.13.75-.34,1.11-.62l.1.06v1.99c0,.48.14.64.35.67v.13c-.52-.02-.98-.02-1.56,0v-.13ZM807.65,234.66c0-.29.19-.46.48-.46.27,0,.48.19.48.46,0,.31-.23.46-.48.46-.29,0-.48-.2-.48-.46Z" fill="#fff"/>
        <path d="M809.14,236.83c0-.88.53-1.44,1.4-1.44.81.02,1.35.59,1.35,1.45s-.53,1.42-1.4,1.42c-.79,0-1.34-.58-1.35-1.43ZM811.04,237.01c0-1.06-.16-1.48-.57-1.48-.34,0-.49.32-.49,1.12,0,1.05.16,1.48.57,1.48.34,0,.48-.32.49-1.12Z" fill="#fff"/>
        <path d="M812.15,238.07c.24-.04.4-.15.4-.57v-1.06c0-.22-.13-.34-.4-.36v-.11c.36-.13.73-.34,1.09-.62l.1.06v.48c.29-.31.71-.5,1.07-.5.45,0,.78.33.78.8v1.21c0,.48.14.64.4.67v.13c-.58-.02-1.03-.02-1.56,0v-.13c.18-.04.35-.15.35-.57v-1.15c0-.41-.14-.6-.38-.6s-.47.11-.65.3v1.35c0,.48.14.64.35.67v.13c-.52-.02-.98-.02-1.56,0v-.13Z" fill="#fff"/>
        <path d="M815.96,238.03c0-.31-.01-.62-.02-.93h.11c.29.67.72,1.03,1.09,1.03.24,0,.39-.16.39-.37,0-.59-1.6-.58-1.6-1.55,0-.53.42-.82,1.07-.82.3,0,.72.08.91.17,0,.25-.01.51,0,.76h-.11c-.3-.58-.54-.81-.87-.81-.22,0-.36.14-.36.35,0,.57,1.59.63,1.59,1.51,0,.54-.37.88-1.16.88-.33,0-.86-.1-1.04-.23Z" fill="#fff"/>
      </g>
    </g>
    <g>
      <path d="M731.44,237.84c0,1.2-.5,2.13-1.5,2.8-.84.55-1.89.85-3.16.89-.38.01-.95.02-1.7.02h-4.32c-.51,0-.77-.13-.77-.4,0-.16.16-.27.49-.32.45-.07.74-.15.89-.24.32-.19.49-.53.49-1.01v-10.2c0-.53-.16-.88-.49-1.07-.15-.09-.44-.17-.87-.22-.32-.04-.49-.14-.49-.3,0-.28.38-.42,1.13-.42h2.72c1.2.01,2.1.02,2.7.02,1.19,0,2.17.26,2.96.77.9.59,1.36,1.45,1.36,2.57,0,.84-.34,1.55-1.01,2.15-.57.51-1.3.89-2.19,1.13,2.51.62,3.77,1.9,3.77,3.85ZM728.34,230.95c0-.84-.26-1.5-.76-1.99s-1.18-.73-2.03-.73c-.88,0-1.32.23-1.32.69v4.74h1.39c.86,0,1.53-.24,2.01-.71.48-.47.72-1.14.72-2.01ZM728.83,237.65c0-1-.28-1.78-.85-2.35-.57-.57-1.36-.85-2.36-.85h-1.38v5.65c0,.19.18.34.55.47.28.08.55.12.81.12,1,0,1.79-.26,2.37-.78.58-.52.87-1.27.87-2.26Z" fill="#fff"/>
      <path d="M743,232.61c0,.19-.14.32-.41.39-.27.07-.47.18-.61.34-.05.08-.16.29-.3.63-.62,1.5-1.57,3.75-2.86,6.75-.74,1.73-1.4,2.98-1.97,3.75-1.03,1.36-2.18,2.05-3.44,2.05-1,0-1.5-.32-1.5-.97,0-.2.09-.46.26-.77.18-.31.36-.47.55-.47.05,0,.26.18.62.55.36.36.68.55.96.55.61,0,1.24-.48,1.88-1.44.49-.72.86-1.47,1.11-2.27-.47-1.19-1.18-2.97-2.13-5.33-.24-.68-.64-1.66-1.18-2.96-.12-.26-.34-.4-.67-.43-.27-.01-.41-.13-.41-.36,0-.2.1-.33.3-.38.05-.01,1.42-.02,4.11-.02.18,0,.26.14.26.41s-.23.39-.69.4c-.46,0-.69.1-.69.27,0,.12.33,1.06,1,2.82.64,1.69,1.04,2.72,1.2,3.08.43-1.03.88-2.06,1.32-3.1.71-1.69,1.06-2.61,1.06-2.78,0-.19-.23-.29-.68-.29-.45,0-.68-.14-.68-.4,0-.27.1-.41.3-.41h2.98c.18,0,.26.14.26.41Z" fill="#fff"/>
    </g>
  </g>
  <line x1="576.99" y1="268.49" x2="818.17" y2="268.49" fill="none" stroke="#fff" stroke-miterlimit="10" stroke-width="4"/>
</svg>